<svg class="svg-canvas" viewBox="0 0 800 600" width="1600" height="1200" preserveAspectRatio="none" version="1.1" xmlns="http://www.w3.org/2000/svg" xmlns:xlink="http://www.w3.org/1999/xlink">
        <!--滤镜-->
        <defs></defs>

        <!-- 背景 -->
        <g id="background">
            <rect x="0" y="0" fill="#ffffff" width="800" height="600"></rect>
            
          </g>

        <!--元素-->
        
                <g id="shape_xm1srCnJir" ref="shape_xm1srCnJir" key="shape_xm1srCnJir" mask="">
                  <g transform="translate(-255.73581557147003,-60.920583401560066) rotate(0,656.91352633272,469.41352633272004) scale(1,1)" style="opacity: 1;mix-blend-mode: undefined;" filter="">
                    <!--普通元素-->
                    <svg xmlns="http://www.w3.org/2000/svg" version="1.1" xmlns:xlink="http://www.w3.org/1999/xlink" width="1313.82705266544" height="938.8270526654401" viewBox="0 0 1313.82705266544 938.8270526654401" data-ligature="true" data-parent="shape_xm1srCnJir"><g data-role="text" data-width="527.5539965011019" data-height="156" transform="translate(393.1365280821691, 391.41352633272004)"><path d="M92.24 13.05L82.07-16.05L37.18-16.05L26.49 13.05L4.57 13.05L40.97-85.07Q42.01-87.68 44.43-89.50Q46.84-91.33 49.71-91.33L49.71-91.33L59.10-91.33Q62.23-91.33 64.65-89.50Q67.06-87.68 68.11-85.07L68.11-85.07L102.68 13.05L92.24 13.05ZM39.79-23.35L79.46-23.35L61.32-75.41Q60.93-76.06 60.15-76.13Q59.36-76.19 58.97-75.41L58.97-75.41L39.79-23.35Z" transform="translate(0 121) " fill="rgb(42, 42, 42)" stroke="rgb(42, 42, 42)" stroke-width="0.217" data-glyph-w="102.94994052189926" data-glyph-h="136.60209" data-glyph-ascender="112.07373" data-glyph-descender="-24.52836" data-kerning="0"></path><path d="M30.01 13.05L9.39 13.05L9.39-91.33L30.01-91.33L30.01 13.05Z" transform="translate(102.94994052189926 121) " fill="rgb(42, 42, 42)" stroke="rgb(42, 42, 42)" stroke-width="0.217" data-glyph-w="37.71494052189925" data-glyph-h="136.60209" data-glyph-ascender="112.07373" data-glyph-descender="-24.52836" data-kerning="0"></path><path d="M0,0Z" transform="translate(140.66488104379852 121) " fill="rgb(42, 42, 42)" stroke="rgb(42, 42, 42)" stroke-width="0.217" data-glyph-w="76.85594052189926" data-glyph-h="136.60209" data-glyph-ascender="112.07373" data-glyph-descender="-24.52836" data-kerning="0"></path><path d="M30.01 13.05L9.39 13.05L9.39-91.33L30.01-91.33L30.01 13.05Z" transform="translate(217.52082156569776 121) " fill="rgb(42, 42, 42)" stroke="rgb(42, 42, 42)" stroke-width="0.217" data-glyph-w="37.71494052189925" data-glyph-h="136.60209" data-glyph-ascender="112.07373" data-glyph-descender="-24.52836" data-kerning="0"></path><path d="M63.54-60.02L63.54-60.02Q66.93-60.02 69.28-57.67Q71.63-55.32 71.63-52.06L71.63-52.06L71.63 13.05L51.01 13.05L51.01-49.84Q51.01-51.01 50.17-51.86Q49.32-52.71 48.14-52.71L48.14-52.71L38.36-52.71Q36.66-52.71 35.62-51.80L35.62-51.80L24.53-44.75L24.53 13.05L3.91 13.05L3.91-60.02L24.53-60.02L24.53-52.84L33.53-58.58Q36.01-60.02 39.14-60.02L39.14-60.02L63.54-60.02Z" transform="translate(255.235762087597 121) " fill="rgb(42, 42, 42)" stroke="rgb(42, 42, 42)" stroke-width="0.217" data-glyph-w="71.63714052189925" data-glyph-h="136.60209" data-glyph-ascender="112.07373" data-glyph-descender="-24.52836" data-kerning="0"></path><path d="M67.84-55.32L67.84-48.01L39.40-48.01L39.40 13.05L18.79 13.05L18.79-48.01L4.31-48.01L4.31-55.32L18.79-55.32L18.79-78.41Q18.79-81.67 21.07-83.89Q23.35-86.11 26.62-86.11L26.62-86.11L65.23-86.11L65.23-78.80L42.27-78.80Q41.10-78.80 40.25-77.96Q39.40-77.11 39.40-75.93L39.40-75.93L39.40-55.32L67.84-55.32Z" transform="translate(326.87290260949624 121) " fill="rgb(42, 42, 42)" stroke="rgb(42, 42, 42)" stroke-width="0.217" data-glyph-w="69.02774052189926" data-glyph-h="136.60209" data-glyph-ascender="112.07373" data-glyph-descender="-24.52836" data-kerning="0"></path><path d="M51.67-60.02L51.67-52.71L30.01-52.71Q28.70-52.71 27.86-51.86Q27.01-51.01 27.01-49.71L27.01-49.71L27.01 13.05L6.39 13.05L6.39-52.19Q6.39-55.45 8.68-57.73Q10.96-60.02 14.35-60.02L14.35-60.02L51.67-60.02Z" transform="translate(395.9006431313955 121) " fill="rgb(42, 42, 42)" stroke="rgb(42, 42, 42)" stroke-width="0.217" data-glyph-w="50.761940521899255" data-glyph-h="136.60209" data-glyph-ascender="112.07373" data-glyph-descender="-24.52836" data-kerning="0"></path><path d="M5.09-60.02L69.15-59.89Q72.41-59.89 74.69-57.60Q76.98-55.32 76.98-51.93L76.98-51.93L76.98 5.09Q76.98 8.48 74.69 10.76Q72.41 13.05 69.15 13.05L69.15 13.05L15.40 13.05Q12.13 13.05 9.85 10.76Q7.57 8.48 7.57 5.09L7.57 5.09L7.57-23.62Q7.57-27.01 9.85-29.36Q12.13-31.70 15.40-31.70L15.40-31.70L56.36-31.70L56.36-49.84Q56.36-51.01 55.51-51.86Q54.67-52.71 53.49-52.71L53.49-52.71L5.09-52.71L5.09-60.02ZM31.05 5.74L53.49 5.74Q54.67 5.74 55.51 4.89Q56.36 4.04 56.36 2.74L56.36 2.74L56.36-24.40L31.05-24.40Q29.88-24.40 29.03-23.48Q28.18-22.57 28.18-21.40L28.18-21.40L28.18 2.74Q28.18 4.04 29.03 4.89Q29.88 5.74 31.05 5.74L31.05 5.74Z" transform="translate(446.66258365329475 121) " fill="rgb(42, 42, 42)" stroke="rgb(42, 42, 42)" stroke-width="0.217" data-glyph-w="79.46534052189926" data-glyph-h="136.60209" data-glyph-ascender="112.07373" data-glyph-descender="-24.52836" data-kerning="0"></path></g></svg>
                  </g>
                </g>
                <g id="shape_jVFXscjDct" ref="shape_jVFXscjDct" key="shape_jVFXscjDct" mask="">
                  <g transform="translate(141.38019547638,400.78561578381) rotate(0,258.75,111.25) scale(1,1)" style="opacity: 1;mix-blend-mode: undefined;" filter="">
                    <!--普通元素-->
                    <svg xmlns="http://www.w3.org/2000/svg" version="1.1" xmlns:xlink="http://www.w3.org/1999/xlink" width="517.5" height="222.5" viewBox="0 0 517.5 222.5" data-ligature="true" data-parent="shape_jVFXscjDct"><g data-role="box"><rect x="97.7615" y="84.55" width="321.92699999999996" height="41.44000000000001" fill="#2a2a2a" stroke-width="0" stroke="#000000" stroke-dasharray="" rx="20.720000000000006"></rect></g><g data-role="text" data-width="309.517" data-height="34" transform="translate(103.9915, 94.25)"><path d="M10.85-14.04L10.85-14.04Q8.61-14.04 7.42-12.67Q6.24-11.31 6.24-8.82L6.24-8.82Q6.24-6.29 7.55-4.93Q8.87-3.57 11.11-3.57L11.11-3.57Q12.30-3.57 13.12-3.89Q13.95-4.21 14.70-4.61L14.70-4.61Q15.20-4.21 15.47-3.64Q15.75-3.07 15.75-2.32L15.75-2.32Q15.75-1.13 14.43-0.30Q13.11 0.52 10.41 0.52L10.41 0.52Q8.47 0.52 6.76-0.03Q5.05-0.58 3.77-1.73Q2.49-2.87 1.75-4.63Q1.02-6.38 1.02-8.82L1.02-8.82Q1.02-11.08 1.73-12.80Q2.44-14.53 3.67-15.72Q4.90-16.91 6.55-17.52Q8.21-18.13 10.09-18.13L10.09-18.13Q12.76-18.13 14.22-17.26Q15.69-16.39 15.69-15.02L15.69-15.02Q15.69-14.27 15.31-13.72Q14.94-13.17 14.44-12.85L14.44-12.85Q13.69-13.34 12.83-13.69Q11.98-14.04 10.85-14.04Z" transform="translate(0 22) " fill="rgb(255, 255, 255)" stroke="rgb(255, 255, 255)" stroke-width="0.048" data-glyph-w="16.559" data-glyph-h="58.348000000000006" data-glyph-ascender="34.365" data-glyph-descender="-23.983" data-kerning="0"></path><path d="M10.85-14.04L10.85-14.04Q8.61-14.04 7.42-12.67Q6.24-11.31 6.24-8.82L6.24-8.82Q6.24-6.29 7.55-4.93Q8.87-3.57 11.11-3.57L11.11-3.57Q12.30-3.57 13.12-3.89Q13.95-4.21 14.70-4.61L14.70-4.61Q15.20-4.21 15.47-3.64Q15.75-3.07 15.75-2.32L15.75-2.32Q15.75-1.13 14.43-0.30Q13.11 0.52 10.41 0.52L10.41 0.52Q8.47 0.52 6.76-0.03Q5.05-0.58 3.77-1.73Q2.49-2.87 1.75-4.63Q1.02-6.38 1.02-8.82L1.02-8.82Q1.02-11.08 1.73-12.80Q2.44-14.53 3.67-15.72Q4.90-16.91 6.55-17.52Q8.21-18.13 10.09-18.13L10.09-18.13Q12.76-18.13 14.22-17.26Q15.69-16.39 15.69-15.02L15.69-15.02Q15.69-14.27 15.31-13.72Q14.94-13.17 14.44-12.85L14.44-12.85Q13.69-13.34 12.83-13.69Q11.98-14.04 10.85-14.04Z" transform="translate(16.559 22) " fill="rgb(255, 255, 255)" stroke="rgb(255, 255, 255)" stroke-width="0.048" data-glyph-w="16.559" data-glyph-h="58.348000000000006" data-glyph-ascender="34.365" data-glyph-descender="-23.983" data-kerning="0"></path><path d="M4.58-17.57L14.24-17.57Q14.44-17.26 14.60-16.72Q14.76-16.18 14.76-15.60L14.76-15.60Q14.76-14.47 14.28-13.99Q13.80-13.51 12.99-13.51L12.99-13.51L6.90-13.51L6.90-10.24L13.25-10.24Q13.49-9.92 13.64-9.40Q13.80-8.87 13.80-8.29L13.80-8.29Q13.80-7.19 13.33-6.71Q12.85-6.24 12.04-6.24L12.04-6.24L6.96-6.24L6.96-0.12Q6.64-0.03 5.96 0.06Q5.28 0.15 4.61 0.15L4.61 0.15Q3.94 0.15 3.44 0.04Q2.93-0.06 2.58-0.32Q2.23-0.58 2.06-1.04Q1.89-1.51 1.89-2.26L1.89-2.26L1.89-14.88Q1.89-16.12 2.61-16.85Q3.33-17.57 4.58-17.57L4.58-17.57Z" transform="translate(33.118 22) " fill="rgb(255, 255, 255)" stroke="rgb(255, 255, 255)" stroke-width="0.048" data-glyph-w="15.399000000000001" data-glyph-h="58.348000000000006" data-glyph-ascender="34.365" data-glyph-descender="-23.983" data-kerning="0"></path><path d="M11.05-12.27C11.05-12.64 11.05-12.99 11.05-13.34L11.05-19.98L18.47-19.98L18.47-12.27ZM27.49-12.27L21.29-12.27L21.29-19.98L26.59-19.98L26.59-22.53L2.58-22.53L2.58-19.98L8.29-19.98L8.29-13.34C8.29-12.99 8.29-12.64 8.29-12.27L1.59-12.27L1.59-9.69L8.09-9.69C7.63-6.03 6.12-2.38 1.57 0.41C2.23 0.84 3.28 1.80 3.74 2.41C8.90-0.84 10.44-5.25 10.88-9.69L18.47-9.69L18.47 2.32L21.29 2.32L21.29-9.69L27.49-9.69Z" transform="translate(48.517 22) " fill="rgb(255, 255, 255)" stroke="rgb(255, 255, 255)" stroke-width="0.048" data-glyph-w="29" data-glyph-h="29" data-glyph-ascender="25.52" data-glyph-descender="-3.48" data-kerning="0"></path><path d="M8.90-21.11C7.77-21.92 5.57-23.20 4.09-24.04L2.49-22.16C4.03-21.17 6.18-19.81 7.25-18.97ZM7.51-13.54C6.35-14.33 4.18-15.54 2.67-16.36L1.10-14.41C2.67-13.51 4.81-12.18 5.89-11.37ZM5.86-8.85C4.58-5.54 2.84-1.83 1.62 0.43L4.06 1.89C5.39-0.84 6.87-4.32 8.00-7.34ZM12.38-20.45L27.49-20.45L27.49-22.88L9.74-22.88L9.74-14.96C9.74-10.27 9.45-3.74 6.21 0.78C6.84 1.07 8.00 1.77 8.47 2.20C11.86-2.58 12.38-9.92 12.38-14.96ZM14.56-5.95C13.80-4.09 12.56-2.06 11.31-0.70C11.92-0.38 12.96 0.26 13.46 0.61C14.65-0.84 16.04-3.19 16.96-5.28ZM16.18-11.48L24.01-11.48L24.01-9.37L16.18-9.37ZM16.18-15.49L24.01-15.49L24.01-13.40L16.18-13.40ZM26.54-7.37L26.54-17.52L20.59-17.52C20.94-18.21 21.34-18.94 21.72-19.72L18.71-20.27C18.53-19.49 18.21-18.42 17.92-17.52L13.78-17.52L13.78-7.37L18.68-7.37L18.68-0.46C18.68-0.15 18.56-0.03 18.21-0.03C17.86-0.03 16.68 0 15.46-0.06C15.72 0.61 16.07 1.59 16.15 2.26C18.04 2.29 19.31 2.26 20.16 1.86C21.03 1.51 21.23 0.84 21.23-0.38L21.23-7.37ZM22.68-5.34C23.72-3.51 25.00-1.07 25.61 0.38L28.07-0.70C27.43-2.12 26.07-4.47 25.00-6.21Z" transform="translate(77.517 22) " fill="rgb(255, 255, 255)" stroke="rgb(255, 255, 255)" stroke-width="0.048" data-glyph-w="29" data-glyph-h="29" data-glyph-ascender="25.52" data-glyph-descender="-3.48" data-kerning="0"></path><path d="M25.11-20.01C24.33-21.05 22.71-22.82 21.52-24.04L19.40-22.79C20.59-21.49 22.19-19.66 22.94-18.59ZM21.11-10.03C20.13-8.00 18.73-6.29 17.08-4.87C15.34-6.32 13.95-8.03 12.88-10.03ZM23.03-12.76L22.50-12.64L13.34-12.64C13.69-13.51 14.01-14.47 14.30-15.40L27.03-15.40L27.06-17.98L14.96-17.98C15.40-19.87 15.75-21.87 16.01-23.98L13.02-24.45C12.73-22.19 12.35-20.01 11.86-17.98L7.19-17.98C7.95-19.49 8.73-21.34 9.22-23.11L6.38-23.61C5.89-21.37 4.76-19.08 4.44-18.50C4.06-17.86 3.71-17.43 3.31-17.34C3.60-16.68 4.03-15.43 4.21-14.85C4.47-15.20 5.54-15.40 7.22-15.40L11.14-15.40C9.25-9.60 6.09-5.08 0.90-2.12C1.57-1.59 2.52-0.55 2.90 0.03C6.53-2.12 9.19-4.84 11.19-8.15C12.24-6.32 13.49-4.70 14.96-3.31C12.64-1.77 9.89-0.70 7.02-0.03C7.54 0.58 8.18 1.62 8.47 2.32C11.63 1.48 14.59 0.26 17.17-1.51C19.69 0.29 22.71 1.59 26.30 2.35C26.68 1.62 27.41 0.49 28.01-0.09C24.65-0.70 21.75-1.77 19.34-3.25C21.75-5.42 23.69-8.27 24.85-11.92Z" transform="translate(106.517 22) " fill="rgb(255, 255, 255)" stroke="rgb(255, 255, 255)" stroke-width="0.048" data-glyph-w="29" data-glyph-h="29" data-glyph-ascender="25.52" data-glyph-descender="-3.48" data-kerning="0"></path><path d="M23.14-20.68L23.14-18.21L6.76-18.21L6.76-20.68ZM25.84-15.92L25.84-23.00L4.06-23.00L4.06-14.56C4.06-9.95 3.80-3.54 0.93 0.93C1.62 1.19 2.81 1.89 3.33 2.32C6.32-2.41 6.76-9.60 6.76-14.56L6.76-15.92ZM24.10-6.24C23.11-5.42 21.61-4.41 20.27-3.65C19.49-4.41 18.82-5.28 18.30-6.24ZM14.07-11.08L19.23-11.08L19.23-8.50L14.07-8.50ZM24.24-6.24L27.49-6.24L27.49-8.50L21.75-8.50L21.75-11.08L26.30-11.08L26.30-13.37L21.75-13.37L21.75-15.89L19.23-15.89L19.23-13.37L14.07-13.37L14.07-15.89L11.60-15.89L11.60-13.37L7.57-13.37L7.57-11.08L11.60-11.08L11.60-8.50L6.84-8.50L6.84-6.24L9.71-6.24L9.71-2.26C9.71-0.93 8.82-0.17 8.24 0.15C8.61 0.64 9.13 1.71 9.31 2.38L9.31 2.35C9.89 1.97 10.82 1.71 17.66 0.15C17.63-0.41 17.72-1.42 17.84-2.12L12.21-0.93L12.21-6.24L15.72-6.24C17.69-1.89 21.11 1.02 26.22 2.29C26.56 1.57 27.26 0.58 27.84 0.06C25.55-0.41 23.61-1.19 21.98-2.29C23.35-2.99 24.91-3.94 26.19-4.90Z" transform="translate(135.517 22) " fill="rgb(255, 255, 255)" stroke="rgb(255, 255, 255)" stroke-width="0.048" data-glyph-w="29" data-glyph-h="29" data-glyph-ascender="25.52" data-glyph-descender="-3.48" data-kerning="0"></path><path d="M10.64-11.83L7.66-11.05L7.66-16.15L10.70-16.15L10.70-18.68L7.66-18.68L7.66-24.33L5.02-24.33L5.02-18.65L1.45-18.65L1.45-16.15L5.02-16.15L5.02-10.32C3.57-9.98 2.23-9.66 1.13-9.40L1.83-6.82C2.84-7.08 3.89-7.37 5.02-7.69L5.02-0.81C5.02-0.41 4.87-0.26 4.44-0.26C4.09-0.23 2.87-0.23 1.59-0.26C1.94 0.41 2.29 1.54 2.41 2.18C4.38 2.20 5.68 2.12 6.53 1.71C7.37 1.31 7.66 0.58 7.66-0.81L7.66-8.44C8.76-8.76 9.86-9.08 10.96-9.40ZM23.17-11.08C22.19-8.76 20.73-6.76 18.94-5.10C17.26-6.82 15.98-8.82 15.05-11.08ZM24.85-13.63L24.39-13.54L20.27-13.54L20.27-17.52L26.97-17.52L26.97-19.98L20.27-19.98L20.27-24.33L17.60-24.33L17.60-19.98L11.11-19.98L11.11-17.52L17.60-17.52L17.60-13.54L11.63-13.54L11.63-11.08L12.79-11.08L12.41-10.96C13.51-8.06 14.99-5.57 16.91-3.45C14.67-1.94 12.15-0.84 9.45-0.17C9.95 0.41 10.61 1.57 10.90 2.26C13.80 1.42 16.50 0.15 18.82-1.59C20.94 0.17 23.40 1.48 26.33 2.32C26.71 1.62 27.46 0.55 28.07 0.03C25.32-0.70 22.94-1.83 20.94-3.33C23.49-5.77 25.43-8.93 26.59-12.93Z" transform="translate(164.517 22) " fill="rgb(255, 255, 255)" stroke="rgb(255, 255, 255)" stroke-width="0.048" data-glyph-w="29" data-glyph-h="29" data-glyph-ascender="25.52" data-glyph-descender="-3.48" data-kerning="0"></path><path d="M24.59-19.84C23.49-21.00 21.20-22.74 19.55-23.93L17.55-22.27C19.26-21.00 21.46-19.17 22.50-17.95ZM26.85-14.50L26.85-17.14L16.04-17.14L16.04-24.30L13.08-24.30L13.08-17.14L2.00-17.14L2.00-14.50L12.35-14.50C9.86-9.89 5.45-5.45 1.02-3.19C1.68-2.61 2.58-1.54 3.07-0.87C6.82-3.02 10.38-6.61 13.08-10.73L13.08 2.29L16.04 2.29L16.04-11.80C18.79-7.63 22.45-3.54 25.78-1.07C26.30-1.83 27.26-2.90 27.96-3.48C24.13-5.86 19.75-10.32 17.17-14.50Z" transform="translate(193.517 22) " fill="rgb(255, 255, 255)" stroke="rgb(255, 255, 255)" stroke-width="0.048" data-glyph-w="29" data-glyph-h="29" data-glyph-ascender="25.52" data-glyph-descender="-3.48" data-kerning="0"></path><path d="M18.56-6.47C17.81-5.13 16.73-4.06 15.43-3.19C13.60-3.63 11.72-4.06 9.80-4.47C10.35-5.08 10.90-5.77 11.46-6.47ZM15.78-10.85L15.78-15.89C18.44-13.25 22.39-11.02 26.13-9.89C26.51-10.59 27.29-11.57 27.84-12.12C24.65-12.91 21.23-14.41 18.82-16.24L27.17-16.24L27.17-18.50L15.78-18.50L15.78-21.17C19.00-21.46 22.04-21.84 24.48-22.39L22.48-24.30C18.21-23.37 10.35-22.82 3.80-22.68C4.00-22.13 4.29-21.17 4.35-20.59C7.13-20.62 10.15-20.73 13.11-20.94L13.11-18.50L1.77-18.50L1.77-16.24L10.15-16.24C7.71-14.30 4.29-12.70 1.04-11.83C1.59-11.37 2.35-10.38 2.70-9.71C6.50-10.90 10.44-13.20 13.11-15.89L13.11-11.28L11.66-11.63C11.17-10.73 10.59-9.71 9.89-8.76L1.45-8.76L1.45-6.47L8.21-6.47C7.31-5.31 6.41-4.21 5.54-3.31L5.37-3.19C7.71-2.70 10.01-2.18 12.18-1.65C9.51-0.73 6.09-0.29 1.86-0.06C2.32 0.55 2.73 1.54 2.93 2.29C8.55 1.83 12.85 0.99 16.04-0.67C19.49 0.29 22.53 1.22 24.80 2.09L27.20 0.15C24.91-0.67 21.92-1.54 18.59-2.41C19.84-3.48 20.82-4.81 21.61-6.47L27.58-6.47L27.58-8.76L13.08-8.76C13.54-9.48 13.95-10.15 14.33-10.85Z" transform="translate(222.517 22) " fill="rgb(255, 255, 255)" stroke="rgb(255, 255, 255)" stroke-width="0.048" data-glyph-w="29" data-glyph-h="29" data-glyph-ascender="25.52" data-glyph-descender="-3.48" data-kerning="0"></path><path d="M8.27-20.76L20.79-20.76L20.79-17.98L8.27-17.98ZM5.45-23.08L5.45-15.66L23.78-15.66L23.78-23.08ZM12.88-9.28L12.88-6.70C12.88-4.55 12.06-1.65 1.89 0.26C2.55 0.84 3.36 1.89 3.71 2.49C14.30 0.09 15.81-3.60 15.81-6.64L15.81-9.28ZM15.40-1.71C18.82-0.55 23.49 1.25 25.84 2.47L27.23 0.15C24.74-1.02 20.01-2.70 16.73-3.71ZM4.35-13.37L4.35-2.84L7.16-2.84L7.16-10.88L22.07-10.88L22.07-3.10L24.97-3.10L24.97-13.37Z" transform="translate(251.517 22) " fill="rgb(255, 255, 255)" stroke="rgb(255, 255, 255)" stroke-width="0.048" data-glyph-w="29" data-glyph-h="29" data-glyph-ascender="25.52" data-glyph-descender="-3.48" data-kerning="0"></path><path d="M2.73-7.37L10.38-7.37C8.61-5.10 6.73-3.16 5.97-2.52C5.10-1.71 4.44-1.19 3.77-1.04C4.12-0.29 4.52 1.10 4.70 1.71C5.95 1.22 7.69 1.13 22.48-0.03C23.11 0.78 23.61 1.59 23.98 2.26L26.42 0.78C25.11-1.36 22.45-4.44 19.89-6.67L17.60-5.48C18.59-4.58 19.63-3.51 20.59-2.41L8.79-1.59C10.67-3.31 12.50-5.31 14.07-7.37L26.48-7.37L26.48-10.01L2.73-10.01ZM8.82-15.54C10.96-16.96 12.91-18.53 14.56-20.30C16.15-18.73 18.30-17.02 20.62-15.54ZM14.53-24.39C11.86-20.59 6.76-17.02 1.22-14.79C1.83-14.27 2.76-13.11 3.13-12.41C4.76-13.17 6.29-13.98 7.77-14.88L7.77-13.05L21.34-13.05L21.34-15.08C22.85-14.18 24.45-13.37 26.04-12.73C26.45-13.46 27.35-14.56 27.93-15.08C23.46-16.59 18.85-19.49 16.12-22.04C16.44-22.45 16.76-22.85 17.02-23.26Z" transform="translate(280.517 22) " fill="rgb(255, 255, 255)" stroke="rgb(255, 255, 255)" stroke-width="0.048" data-glyph-w="29" data-glyph-h="29" data-glyph-ascender="25.52" data-glyph-descender="-3.48" data-kerning="0"></path></g></svg>
                  </g>
                </g>
                <g id="shape_YgzpewmYbg" ref="shape_YgzpewmYbg" key="shape_YgzpewmYbg" mask="">
                  <g transform="translate(289.3391843609,60) rotate(0,110.66081563911,127.78231151452) scale(1,1)" style="opacity: 1;mix-blend-mode: undefined;" filter="">
                    <!--普通元素-->
                    <svg version="1.0" id="圖層_1" xmlns="http://www.w3.org/2000/svg" xmlns:xlink="http://www.w3.org/1999/xlink" x="0px" y="0px" width="221.32163127822" height="255.56462302904" viewBox="13.380000114440918 2.440000057220459 167.1400146484375 193" enable-background="new 0 0 200 200" xml:space="preserve" class="style-removed" preserveAspectRatio="none" data-parent="shape_YgzpewmYbg">
<path fill-rule="evenodd" clip-rule="evenodd" fill="#0054B6" d="M75.64,94.71c0.04-0.22,0.09-0.45,0.14-0.67L75.64,94.71z
	 M72.81,16.38l12.36-7.14l3.56,34.23l-4.59,7.94L72.81,16.38L72.81,16.38z M57.37,25.3l20.9,36.3l2.58-4.47L68.48,18.88L57.37,25.3
	L57.37,25.3z M42.05,34.15l31.7,35.29l1.7-2.95L53.14,27.74L42.05,34.15L42.05,34.15z M25.36,43.78l12.34-7.13L71.17,73.9
	l-1.32,2.28L25.36,43.78L25.36,43.78z M13.38,58.93v-8.24l7.35-4.25l46.66,33.98l-1.21,2.09L13.38,58.93L13.38,58.93z M13.38,78.57
	V64.29l50.34,22.49l-1.31,2.27L13.38,78.57L13.38,78.57z M13.38,96.4l44.76,0.05l1.7-2.94l-46.46-9.93V96.4L13.38,96.4z
	 M13.38,114.1v-12.81l41.94,0.05l-2.56,4.44L13.38,114.1L13.38,114.1z M13.38,133.36l31.53-13.99l4.56-7.89l-36.09,7.63V133.36
	L13.38,133.36z M20.52,151.31l-7.13-4.12v-8.49l27.39-12.15l-3.07,5.32h9.65L20.52,151.31L20.52,151.31z M37.52,161.13l-12.36-7.14
	l30.54-22.13h8.24L37.52,161.13L37.52,161.13z M52.96,170.04l-11.1-6.41l28.68-31.77h4.53L52.96,170.04L52.96,170.04z M68.29,178.89
	l15.34-47.03h-2.92L57.2,172.49L68.29,178.89L68.29,178.89z M84.97,188.52l6.03-56.66h-2.2L72.63,181.4L84.97,188.52L84.97,188.52z
	 M104.09,191.32l-7.14,4.12l-7.35-4.24l6.31-59.33h2L104.09,191.32L104.09,191.32z M121.1,181.5l-16.06-49.64h-2.2l5.9,56.78
	L121.1,181.5L121.1,181.5z M136.53,172.59L125.43,179l-15.25-47.14h2.91L136.53,172.59L136.53,172.59z M151.86,163.74l-11.09,6.41
	l-22.04-38.28h4.5L151.86,163.74L151.86,163.74z M168.54,154.11L138,131.86h-8.19l26.38,29.37L168.54,154.11L168.54,154.11z
	 M180.52,138.95l-27.26-12.17l2.94,5.09h-9.91l26.87,19.57l7.36-4.24V138.95L180.52,138.95z M180.52,119.32l-36.01-7.7l4.59,7.94
	l31.42,14.04V119.32L180.52,119.32z M180.52,101.49v12.82l-39.31-8.4l-2.58-4.47L180.52,101.49L180.52,101.49z M180.52,83.79V96.6
	l-44.71-0.06l-1.7-2.95L180.52,83.79L180.52,83.79z M180.52,64.53l-50.31,22.32l1.32,2.28l48.99-10.35V64.53L180.52,64.53z
	 M173.39,46.57l7.13,4.12v8.49L127.76,82.6l-1.21-2.09L173.39,46.57L173.39,46.57z M156.38,36.76l12.36,7.14L124.1,76.25l-1.31-2.27
	L156.38,36.76L156.38,36.76z M140.95,27.84l11.1,6.41l-31.83,35.27l-1.69-2.94L140.95,27.84L140.95,27.84z M125.61,18.99
	l-12.49,38.26l2.56,4.44l21.01-36.29L125.61,18.99L125.61,18.99z M108.94,9.36l-3.65,34.31l4.55,7.87l11.44-35.06L108.94,9.36
	L108.94,9.36z M96.95,2.44l7.35,4.24l-3.17,29.79l-4.18-7.24l-4.05,7.02L89.82,6.56L96.95,2.44z" stroke-width="0"></path>
</svg>
                  </g>
                </g>
      </svg>