<svg xmlns="http://www.w3.org/2000/svg" xmlns:xlink="http://www.w3.org/1999/xlink" version="1.1" preserveAspectRatio="none" viewBox="0 0 800 600" width="1600" height="1200" style="background:#0054b6;">
      <path transform="translate(0, 0)" fill="#ffffff" fill-rule="evenodd" d="M561.0686954764001,526.7756157838L239.14169547640003,526.7756157838L239.14169547640003,485.33561578380005L259.86169547640003,485.33561578380005L561.0686954764001,485.3356157838ZM509.7686954764,507.7556157838L509.7686954764,510.3356157838L509.71359782015,511.1736235963L509.4816642264,512.0615532838L508.97293375765,512.9790142213L508.08744547640003,513.9056157837999L506.72523844515007,514.8209673463L504.7863517264,515.7046782837999L502.17082438265004,516.5363579713L500.57808268343126,516.9263140259875L498.7786954764,517.2956157838L499.8049454764,518.4031157838001L500.5986954764,519.5256157838L502.4797623709312,519.0609722291126L504.15910563265,518.5689360962999L506.9569767264,517.5140532838L509.08101969514996,516.3837017213L510.61994547639995,515.2006157838L511.66246500765,513.9875298463L512.2972892263999,512.7671782838L512.6131290701499,511.5622954713001L512.6986954764,510.3956157838L512.6986954764,507.7556157838ZM512.2886954764,515.3256157838L515.0322892263999,516.2965532837999L517.9099454764,517.3931157837999L520.5869767264,518.5009282837999L522.7286954764,519.5056157838L524.1186954764,517.1856157838L521.8888517264,516.2309282838L519.1649454764,515.1956157838L516.2929142264,514.1903032838L513.6186954764,513.3256157838ZM296.4686954764,494.5056157838L296.4686954764,497.0556157838L302.1786954764,497.0556157838L302.1786954764,504.7656157838L295.4786954764,504.7656157838L295.4786954764,507.3456157838L301.9786954764,507.3456157838L301.4057267264,510.07545953380003L300.2524454764,512.7218657838L299.39988688265004,513.98887750255L298.3322892264,515.2051470338001L297.02633219514996,516.36071344005L295.4586954764,517.4456157838L296.61869547640003,518.3781157838L297.6286954764,519.4456157838L299.3989298514,518.17469781505L300.85932047640006,516.8082720337999L302.0393986014,515.3595806275498L302.9686954764,513.8418657837999L303.6767423514,512.26836969005L304.19307047639995,510.6523345338L304.7686954764,507.3456157838L312.3586954764,507.3456157838L312.3586954764,519.3556157838L315.1786954764,519.3556157838L315.1786954764,507.3456157838L321.3786954764,507.3456157838L321.3786954764,504.7656157838L315.1786954764,504.7656157838L315.1786954764,497.0556157838L320.4786954764,497.0556157838L320.4786954764,494.5056157838ZM392.4886954764,501.1456157838L392.4886954764,503.6656157838L388.4586954764,503.6656157838L388.4586954764,505.9556157838L392.4886954764,505.9556157838L392.4886954764,508.5356157838L387.7286954764,508.5356157838L387.7286954764,510.7956157838L390.5986954764,510.7956157838L390.5986954764,514.7756157838L390.4505704764,515.6682720338L390.0811954764,516.3593657838001L389.1286954764,517.1856157838L389.7349454764,518.2331157838L390.1986954764,519.4156157838L390.78619547640005,519.1009282837999L391.29205485140005,518.9338579712999L392.02619547640006,518.7281157837999L393.05377360140005,518.4670610963001L394.4399454764,518.1340532838001L396.2498673514,517.7124517213001L398.5486954764,517.1856157838L398.5824454764,516.1031157838L398.7286954764,514.9156157838L393.0986954764,516.1056157838L393.0986954764,510.7956157838L396.6086954764,510.7956157838L398.3618204764,513.7849907838L399.44932047640003,515.0713189088001L400.68119547640003,516.2156157838001L402.0602579764,517.2155376588L403.5893204764,518.0687407838L405.2711954764,518.7728814088L407.1086954764,519.3256157838L407.82869547639996,518.1356157838L408.7286954764,517.0956157838L405.55119547640004,516.1568657838L402.8686954764,514.7456157838L405.0074454764,513.5381157838L407.0786954764,512.1356157838L405.1286954764,510.7956157838L408.3786954764,510.7956157838L408.3786954764,508.5356157838L402.6386954764,508.5356157838L402.6386954764,505.9556157838L407.1886954764,505.9556157838L407.1886954764,503.6656157838L402.6386954764,503.6656157838L402.6386954764,501.1456157838L400.1186954764,501.1456157838L400.1186954764,503.6656157838L394.9586954764,503.6656157838L394.9586954764,501.1456157838ZM364.4036954764,495.9068657838L363.7486954764,499.0556157838L359.0786954764,499.0556157838L360.1949454764,496.5881157838L361.1086954764,493.9256157838L358.2686954764,493.4256157838L357.8038517264,495.08749078380004L357.2349454764,496.60311578380004L356.69791422640003,497.80749078379995L356.3286954764,498.5356157838L355.7711954764,499.32186578380004L355.1986954764,499.6956157838L355.6899454764,500.9706157838L356.0986954764,502.1856157838L356.44244547640005,501.95202203380006L357.0711954764,501.7793657838L357.9661954764,501.67233453380004L359.1086954764,501.6356157838L363.0286954764,501.6356157838L361.36119547640004,505.7412407838L359.1461954764,509.3406157838L357.8111173514,510.9422564088L356.3124454764,512.4074907838001L354.64127360140003,513.7330376588001L352.7886954764,514.9156157838L353.8974454764,515.9718657838L354.7886954764,517.0656157838L357.33416422640005,515.3459282838L359.5449454764,513.4106157838L361.45010172639996,511.25780328380006L363.0786954764,508.8856157838L364.80619547640003,511.4706157838L366.8486954764,513.7256157838L365.0329142264,514.7935845338L363.0849454764,515.6918657838L358.9086954764,517.0056157838L359.71994547639997,518.1468657838L360.3586954764,519.3556157838L364.92619547640004,517.7893657837999L367.0552579764,516.7526470338L369.0586954764,515.5256157838L371.04353922639996,516.7812407838001L373.22244547639997,517.8456157838L375.6019767264,518.7149907838L378.1886954764,519.3856157838L378.9611954764,518.1093657838001L379.8986954764,516.9456157838L377.4654142264,516.4026470338L375.2074454764,515.6918657838L373.1276017264,514.8179595338L371.2286954764,513.7856157838L372.9432267264,512.0287407838L374.45244547640004,510.0056157838L375.7272892264,507.7049907838L376.7386954764,505.1156157838L374.9186954764,504.2756157838L374.3886954764,504.3956157838L365.2286954764,504.3956157838L366.1886954764,501.6356157838L378.9186954764,501.6356157838L378.9486954764,499.0556157838L366.8486954764,499.0556157838L367.44119547639997,496.1381157838L367.8986954764,493.0556157838L364.9086954764,492.5856157838ZM384.9486954764,494.0356157838L384.9486954764,502.4756157838L384.86322672640006,506.2121782838L384.45994547640004,510.2731157838L383.51853922640004,514.3078032838L382.77719157015,516.2057329713L381.8186954764,517.9656157838L383.08244547640004,518.5968657838L384.2186954764,519.3556157838L385.22453532015004,517.47571344005L386.0160392264,515.4201470338L387.0549454764,511.0018657838L387.5332267264,506.5404595338L387.6486954764,502.4756157838L387.6486954764,501.1156157838L406.7286954764,501.1156157838L406.7286954764,494.0356157838ZM427.4886954764,492.7056157838L427.4886954764,497.0556157838L420.9986954764,497.0556157838L420.9986954764,499.5156157838L427.4886954764,499.5156157838L427.4886954764,503.4956157838L421.5186954764,503.4956157838L421.5186954764,505.9556157838L422.6786954764,505.9556157838L422.2986954764,506.0756157838L423.1958829764,508.1743657838L424.24119547640004,510.1231157838L425.4402579764,511.9256157838L426.7986954764,513.5856157838L423.2411954764,515.5406157837999L419.3386954764,516.8656157838L420.1424454764,518.0393657838L420.7886954764,519.2956157838L424.9661954764,517.7081157838L426.9002579764,516.6631157838001L428.7086954764,515.4456157838L430.3644767264,516.6809282838L432.1599454764,517.7456157838L434.1072892264,518.6378032837999L436.2186954764,519.3556157838L437.0024454764,518.1431157838001L437.9586954764,517.0656157838L435.9657267264,516.4435845337999L434.1124454764,515.6743657837999L432.3997892264,514.7607720338L430.8286954764,513.7056157838L432.6241642264,511.7387407838L434.1749454764,509.49061578379997L435.4651017264,506.9499907838L436.4786954764,504.1056157838L434.7386954764,503.4056157838L434.2786954764,503.4956157838L430.1586954764,503.4956157838L430.1586954764,499.5156157838L436.8586954764,499.5156157838L436.8586954764,497.0556157838L430.1586954764,497.0556157838L430.1586954764,492.7056157838ZM451.9686954764,492.7356157838L451.9686954764,499.8956157838L440.8886954764,499.8956157838L440.8886954764,502.5356157838L451.2386954764,502.5356157838L449.0408829764,505.9298345338L446.30119547640004,509.0718657838L443.1977579764,511.77327203379997L439.9086954764,513.8456157838L440.9974454764,514.9718657838L441.9586954764,516.1656157838L444.7251017264,514.2973345337999L447.3574454764,511.97436578379995L449.7929142264,509.2820220338L451.9686954764,506.3056157838L451.9686954764,519.3256157838L454.9286954764,519.3256157838L454.9286954764,505.2356157838L457.1424454764,508.3240532838L459.5811954764,511.2381157838L462.1286954764,513.8334282838L464.6686954764,515.9656157838L465.6911954764,514.6931157838001L466.8486954764,513.5556157838L463.9097892264,511.41749078379996L460.98494547639996,508.7206157838L458.2944767264,505.68624078380003L456.0586954764,502.5356157838L465.7386954764,502.5356157838L465.7386954764,499.8956157838L454.9286954764,499.8956157838L454.9286954764,492.7356157838ZM488.60873453889997,493.06649469005L486.56963297640004,493.3613970338L481.8836954764,493.8418657838L476.77025797640005,494.17420953379997L471.6886954764,494.3556157838L472.01619547639996,495.38936578380003L472.2386954764,496.4456157838L476.55119547640004,496.3381157838L480.9986954764,496.0956157838L480.9986954764,498.5356157838L469.6586954764,498.5356157838L469.6586954764,500.7956157838L478.0386954764,500.7956157838L476.0429142264,502.18077203379994L473.78744547639997,503.40186578379996L471.38010172639997,504.42233453380004L468.9286954764,505.2056157838L469.83369547639995,506.1868657838L470.5886954764,507.3256157838L473.44291422640003,506.2362407838L476.21744547640003,504.7981157838L478.78010172640006,503.07874078379996L480.9986954764,501.1456157838L480.9986954764,505.7556157838L479.5486954764,505.4056157838L477.7786954764,508.2756157838L469.3386954764,508.2756157838L469.3386954764,510.5656157838L476.0986954764,510.5656157838L474.7524454764,512.2431157838L473.4286954764,513.7256157838L473.2586954764,513.8456157838L480.0686954764,515.3856157838L477.92463297640006,515.9898345338L475.4936954764,516.4393657838L472.7702579764,516.7595220338001L469.7486954764,516.9756157838L470.3811954764,518.0981157838L470.8186954764,519.3256157838L474.78947672640004,518.9024907838L478.2849454764,518.2956157838L481.32478922639996,517.4637407838L483.9286954764,516.3656157838L488.75119547639997,517.7793657837999L490.84744547639997,518.4623345338L492.6886954764,519.1256157838L495.0886954764,517.1856157838L493.24557047639996,516.5620220338001L491.1736954764,515.9243657838L486.4786954764,514.6256157838L488.1611954764,512.8168657838L489.4986954764,510.5656157838L495.4686954764,510.5656157838L495.4686954764,508.2756157838L480.9686954764,508.2756157838L482.2186954764,506.1856157838L483.6686954764,506.1856157838L483.6686954764,501.1456157838L485.8821329764,503.03795953379995L488.43869547639997,504.71186578379996L491.1977579764,506.1026470338L494.0186954764,507.1456157838L494.8099454764,505.9743657838L495.7286954764,504.9156157838L493.3124454764,504.1959282838L490.9261954764,503.24561578379996L488.68619547640003,502.1003032838L486.7086954764,500.7956157838L495.0586954764,500.7956157838L495.0586954764,498.5356157838L483.6686954764,498.5356157838L483.6686954764,495.8656157838L488.31119547640003,495.3531157838L490.4327579764,495.02749078380003L492.3686954764,494.6456157838L490.3686954764,492.7356157838ZM341.2449454764,498.0956157838L340.8086954764,499.5156157838L336.6686954764,499.5156157838L336.6686954764,509.6656157838L341.5686954764,509.6656157838L341.5686954764,516.5756157838L341.4649454764,516.9068657838L341.0986954764,517.0056157838L340.69291422640003,517.0093657837999L340.0499454764,517.0131157838L338.3486954764,516.9756157838L338.76119547639996,518.1356157838L339.0386954764,519.2956157838L340.3430704764,519.3020220338001L341.4336954764,519.2568657838001L342.3293204764,519.1310845338L343.0486954764,518.8956157838L343.5829142264,518.5695220338L343.90994547639997,518.1018657838L344.0738517264,517.4710845338L344.1186954764,516.6556157838L344.1186954764,509.6656157838L349.4286954764,509.6656157838L349.4286954764,499.5156157838L343.4786954764,499.5156157838L344.6086954764,497.3156157838L341.5986954764,496.7656157838ZM528.6186954764,507.0256157838L528.6186954764,509.6656157838L536.2686954764,509.6656157838L534.9397892264,511.2910845338L533.6849454764,512.7018657837999L532.6194767264001,513.8070220338L531.8586954764,514.5156157838L530.6836954764001,515.5031157838L529.6586954764,515.9956157838L530.1874454764,517.4231157838L530.4166642263999,518.1640532838001L530.5886954764,518.7456157838L531.1049454764,518.5777446900499L531.8143204764,518.4301470338L532.8640079764,518.28559625255L534.4011954764001,518.1268657838L536.5730704764001,517.93672906505L537.9430118826501,517.8245000611438L539.5268204764,517.6979595338L541.3428946951501,517.5549541627063L543.4096329764001,517.3933306275501L545.7454337576501,517.2109356080188L548.3686954764,517.0056157838L549.2161954764001,518.2031157838001L549.8686954764,519.2956157838L552.3086954764,517.8156157838L551.0957267264,516.0623345338L549.5124454764,514.1243657837999L547.6947892264,512.1695220337999L545.7786954764,510.3656157838L543.4886954764,511.5556157838L546.4786954764,514.6256157838L534.6786954764,515.4456157838L537.4349454764,512.6831157838L539.9586954764,509.6656157838L552.3686954764,509.6656157838L552.3686954764,507.0256157838ZM332.6286954764,494.1556157838L332.6286954764,502.0756157838L332.53275797640003,505.87795953380004L332.0786954764,510.00936578380004L331.6394376639,512.08567437755L331.01713297640003,514.1088970338001L330.18060953890006,516.03391656505L329.0986954764,517.8156157838L330.2886954764,518.4731157837999L331.3586954764,519.2356157838L332.50000407015,517.3326079712999L333.3997892264,515.2465532837999L334.08559000764996,513.0344048462999L334.5849454764,510.7531157838L335.1344767264,506.2109282838L335.2686954764,502.0756157838L335.2686954764,496.5856157838L350.3786954764,496.5856157838L350.3786954764,494.1556157838ZM414.9086954764,492.7056157838L414.9086954764,498.3856157838L411.3386954764,498.3856157838L411.3386954764,500.8856157838L414.9086954764,500.8856157838L414.9086954764,506.7156157838L412.8324454764,507.2056157838L411.0186954764,507.6356157838L411.7186954764,510.2156157838L414.9086954764,509.3456157838L414.9086954764,516.2256157838L414.7799454764,516.6506157838L414.3286954764,516.7756157838L413.9157267264,516.7924907838001L413.2524454764,516.7981157838001L411.4786954764,516.7756157838L411.97494547639997,518.0068657838L412.2986954764,519.2156157838L413.6540079764,519.2082720338L414.7786954764,519.1418657838L415.6933829764,518.9948345338L416.4186954764,518.7456157838L416.9496329764,518.3785845338L417.2986954764,517.8568657838L417.4902579764,517.1495220338L417.5486954764,516.2256157838L417.5486954764,508.5956157838L420.8486954764,507.6356157838L420.5286954764,505.2056157838L417.5486954764,505.9856157838L417.5486954764,500.8856157838L420.5886954764,500.8856157838L420.5886954764,498.3556157838L417.5486954764,498.3556157838L417.5486954764,492.7056157838ZM326.6061954764,513.2193657838L325.5058829764,515.5276470337999L324.5086954764,517.4656157838L326.9486954764,518.9256157838L327.9665079764,516.7563970338L328.99369547640003,514.4193657838L330.8886954764,509.6956157838L328.7486954764,508.1856157838ZM336.0074454764,513.8981157838L335.1269767264,515.2031157838001L334.1986954764,516.3356157838L335.3149454764,516.9793657838001L336.3486954764,517.6456157838L337.2682267263999,516.4074907838L338.1999454764,514.9406157838L339.8486954764,511.7556157838L337.4486954764,511.0856157838ZM253.63669547639998,499.05811578379996L251.9216954764,499.5156157838L250.37669547640002,500.2706157838L249.0416954764,501.3156157838L247.9416954764,502.64061578379994L247.1016954764,504.2356157838L246.5691954764,506.0906157838L246.3916954764,508.2156157838L246.5741954764,510.48311578380003L247.1216954764,512.4056157838L247.9966954764,514.0106157838L249.1416954764,515.3056157838L250.5291954764,516.3056157838L252.1316954764,517.0056157838L253.8991954764,517.4181157838L255.7816954764,517.5556157838L257.0454454764,517.5043657837999L258.13669547639995,517.3506157838L259.0554454764,517.0943657838L259.8016954764,516.7356157838L260.79169547640004,515.8156157838L261.1216954764,514.7156157838L260.8416954764,513.3956157838L260.0716954764,512.4256157838L258.4916954764,513.1456157838L257.57919547639995,513.3856157838L256.4816954764,513.4656157838L255.41919547639998,513.3806157838L254.4716954764,513.1256157838L253.6391954764,512.7006157838L252.9216954764,512.1056157838L252.34857047639997,511.3524907838L251.9391954764,510.45311578380006L251.6935704764,509.4074907838001L251.6116954764,508.2156157838L251.6854454764,507.0412407838L251.9066954764,506.0081157838L252.27544547640002,505.11624078380004L252.7916954764,504.3656157838L253.45232047640002,503.7662407838001L254.2441954764,503.33811578380005L255.1673204764,503.0812407838L256.2216954764,502.9956157838L257.28169547640005,503.0831157838L258.2016954764,503.3456157838L259.8116954764,504.1856157838L260.6816954764,503.3156157838L260.96669547640005,502.7156157838L261.0616954764,502.0156157838L260.6941954764,500.7706157838L259.5916954764,499.7756157838L257.8291954764,499.1231157838L255.4616954764,498.9056157838ZM270.19569547640003,499.05811578379996L268.4806954764,499.5156157838L266.93569547640004,500.2706157838L265.6006954764,501.3156157838L264.5006954764,502.64061578379994L263.6606954764,504.2356157838L263.12819547640004,506.0906157838L262.9506954764,508.2156157838L263.13319547640003,510.48311578380003L263.6806954764,512.4056157838L264.5556954764,514.0106157838L265.7006954764,515.3056157838L267.08819547639996,516.3056157838L268.6906954764,517.0056157838L270.4581954764,517.4181157838L272.3406954764,517.5556157838L273.60444547640003,517.5043657837999L274.69569547640003,517.3506157838L275.6144454764,517.0943657838L276.3606954764,516.7356157838L277.3506954764,515.8156157838L277.6806954764,514.7156157838L277.4006954764,513.3956157838L276.6306954764,512.4256157838L275.0506954764,513.1456157838L274.13819547639997,513.3856157838L273.0406954764,513.4656157838L271.9781954764,513.3806157838L271.0306954764,513.1256157838L270.19819547640003,512.7006157838L269.4806954764,512.1056157838L268.9075704764,511.3524907838L268.4981954764,510.45311578380006L268.2525704764,509.4074907838001L268.1706954764,508.2156157838L268.24444547639996,507.0412407838L268.4656954764,506.0081157838L268.8344454764,505.11624078380004L269.3506954764,504.3656157838L270.0113204764,503.7662407838001L270.8031954764,503.33811578380005L271.7263204764,503.0812407838L272.7806954764,502.9956157838L273.8406954764,503.0831157838L274.7606954764,503.3456157838L276.3706954764,504.1856157838L277.2406954764,503.3156157838L277.5256954764,502.7156157838L277.6206954764,502.0156157838L277.2531954764,500.7706157838L276.1506954764,499.7756157838L274.38819547639997,499.1231157838L272.0206954764,498.9056157838ZM345.5686954764,511.6956157838L347.1949454764,514.6981157838001L347.9297892264,516.1674907838001L348.4986954764,517.4156157838L350.9586954764,516.3356157838L350.3594767264,515.1203032838L349.5849454764,513.7006157838L347.8886954764,510.8256157838ZM283.0696954764,499.4656157838L281.9521954764,499.6456157838L281.0996954764,500.1856157838L280.5596954764,501.0431157838L280.3796954764,502.1556157838L280.3796954764,514.7756157838L280.5496954764,515.9956157838L281.0696954764,516.7156157838L281.9296954764,517.0756157838L283.0996954764,517.1856157838L284.4496954764,517.0956157838L285.4496954764,516.9156157838L285.4496954764,510.7956157838L290.5296954764,510.7956157838L291.25719547639994,510.67811578379997L291.8196954764,510.3256157838L292.1721954764,509.6906157838L292.2896954764,508.7456157838L292.1296954764,507.6356157838L291.7396954764,506.7956157838L285.3896954764,506.7956157838L285.3896954764,503.5256157838L291.4796954764,503.5256157838L292.2071954764,503.4056157838L292.7696954764,503.0456157838L293.1296954764,502.4031157838L293.2496954764,501.4356157838L293.0896954764,500.3156157838L292.7296954764,499.4656157838ZM501.2386954764,503.6656157838L501.2386954764,514.1956157838L504.0486954764,514.1956157838L504.0486954764,506.1556157838L518.9586954764,506.1556157838L518.9586954764,513.9356157838L521.8586954764,513.9356157838L521.8586954764,503.6656157838ZM485.0899454764,512.3818657838L483.3186954764,513.8456157838L477.6886954764,512.5656157838L479.3486954764,510.5656157838L486.4486954764,510.5656157838ZM403.2049454764,512.1131157837999L401.1586954764,513.3856157838L400.0761954764,512.1656157838L399.1886954764,510.7956157838L404.9886954764,510.7956157838ZM371.23494547639996,509.8143657838L368.9686954764,512.1656157838L366.6174454764,509.79186578379995L364.7686954764,507.0056157838L372.9986954764,507.0056157838ZM432.23603922639995,507.6353032838L431.2474454764,509.1931157838L428.8286954764,511.9356157838L426.6024454764,509.1481157838L424.9386954764,505.9556157838L433.0586954764,505.9556157838ZM400.1186954764,508.5356157838L394.9586954764,508.5356157838L394.9586954764,505.9556157838L400.1186954764,505.9556157838ZM346.8986954764,507.6656157838L339.0686954764,507.6656157838L339.0686954764,505.5556157838L346.8986954764,505.5556157838ZM323.9886954764,502.6256157838L326.56744547640005,504.1793657838L327.7954142264,504.97545953379995L328.7786954764,505.6656157838L330.3986954764,503.4956157838L329.36541422639993,502.8370220338L328.10994547639996,502.0968657838L325.5586954764,500.6756157838ZM312.3586954764,504.7656157838L304.9386954764,504.7656157838L304.9386954764,497.0556157838L312.3586954764,497.0556157838ZM539.30742594515,494.05766656505L537.9916642264,495.43514703380004L534.8399454764,498.0343657838L531.1501017264,500.33920953380004L527.1086954764,502.2456157838L528.1536954763999,503.3681157838L529.0186954764,504.6256157838L533.6586954764,502.1556157838L533.6586954764,503.9856157838L547.2286954764,503.9856157838L547.2286954764,501.9556157838L549.5486954764,503.2281157837999L551.9286954764,504.3056157838L552.8099454764,503.0518657838L553.8186954764,501.9556157838L550.4715079764,500.5896782838L547.2611954764,498.86561578379997L544.3771329763999,496.9465532838L542.0086954764,494.9956157838L542.9086954764,493.7756157838L540.4186954764,492.6456157838ZM346.8986954764,503.6356157838L339.0686954764,503.6356157838L339.0686954764,501.5456157838L346.8986954764,501.5456157838ZM543.2049454764,499.1493657838L546.5086954764,501.4956157838L534.7086954764,501.4956157838L537.7624454764,499.2468657838L540.4486954764,496.7356157838ZM502.3386954764,493.9556157838L502.3386954764,501.3756157838L520.6686954764,501.3756157838L520.6686954764,493.9556157838ZM456.4386954764,494.7656157838L459.1649454764,496.9443657838L460.41697672640004,498.07452203379995L461.3886954764,499.0856157838L463.4786954764,497.1956157838L462.4591642264,496.2345220338L461.1649454764,495.16186578379995L458.4386954764,493.1056157838ZM517.6786954764,499.0556157838L505.1586954764,499.0556157838L505.1586954764,496.2756157838L517.6786954764,496.2756157838ZM404.0286954764,498.8256157838L387.6486954764,498.8256157838L387.6486954764,496.3556157838L404.0286954764,496.3556157838ZM371.2886954764,494.2456157838L373.2236954764,496.4318657838L374.12650797640003,497.52077203380003L374.8286954764,498.4456157838L376.9986954764,497.0256157838L376.27603922640003,496.12874078379997L375.3574454764,495.07811578379994L373.4086954764,492.9956157838ZM325.3786954764,494.8756157838L327.9349454764,496.5268657838L329.16010172640006,497.3520220338L330.1386954764,498.0656157838L331.7886954764,495.9256157838L330.7685392264,495.2442095338L329.5149454764,494.4718657838L326.9786954764,492.9956157838ZM198.0213375107,360.2773179311001L199.45321251069998,360.62044293110006L200.7963375107,361.19231793110004L202.0507125107,361.9929429311L204.1207125107,364.0104429311L205.5107125107,366.4229429311L240.0807125107,464.5429429311L229.6407125107,464.5429429311L219.4707125107,435.4429429311L174.5807125107,435.4429429311L163.8907125107,464.5429429311L141.9707125107,464.5429429311L178.3707125107,366.4229429311L179.7557125107,364.0104429311L181.8307125107,361.9929429311L183.06446251070003,361.19231793110004L184.35571251070002,360.62044293110006L185.7044625107,360.2773179311001L187.1107125107,360.1629429311L196.5007125107,360.1629429311ZM270.3606530326,464.5429429311L249.7406530326,464.5429429311L249.7406530326,360.1629429311L270.3606530326,360.1629429311ZM384.9315340764,464.5429429311L364.3115340764,464.5429429311L364.3115340764,360.1629429311L384.9315340764,360.1629429311ZM417.1664745983,398.6529429311L426.1664745983,392.9129429311L428.80897459830004,391.8329429311L431.7764745983,391.4729429311L456.1764745983,391.4729429311L457.80647459830004,391.61981793110004L459.3064745983,392.06044293110006L460.6764745983,392.7948179311L461.9164745983,393.8229429311L462.94459959830004,395.05481793109993L463.6789745983,396.4004429311L464.1195995983,397.8598179311L464.2664745983,399.4329429311L464.2664745983,464.5429429311L443.6464745983,464.5429429311L443.6464745983,401.6529429311L443.43647459830004,400.5629429311L442.8064745983,399.6329429311L441.8739745983,398.9954429311L440.7764745983,398.7829429311L430.9964745983,398.7829429311L429.46147459829996,399.0104429311L428.2564745983,399.6929429311L417.1664745983,406.7429429311L417.1664745983,464.5429429311L396.5464745983,464.5429429311L396.5464745983,391.4729429311L417.1664745983,391.4729429311ZM529.5036151202,372.6929429311L506.5436151202,372.6929429311L505.45361512019997,372.90294293110003L504.5236151202,373.5329429311L503.8861151202,374.46544293110003L503.6736151202,375.5629429311L503.6736151202,396.1729429311L532.1136151202,396.1729429311L532.1136151202,403.4829429311L503.6736151202,403.4829429311L503.6736151202,464.5429429311L483.0636151202,464.5429429311L483.0636151202,403.4829429311L468.5836151202,403.4829429311L468.5836151202,396.1729429311L483.0636151202,396.1729429311L483.0636151202,373.0829429311L483.2061151202,371.5179429310999L483.6336151202,370.0829429311L484.3461151202,368.7779429310999L485.3436151202,367.6029429311L486.54549012020004,366.6316929311L487.8711151202,365.9379429311L489.3204901202,365.5216929311L490.8936151202,365.3829429311L529.5036151202,365.3829429311ZM584.9713556421,398.7829429311L563.3113556421,398.7829429311L562.1188556421,398.9954429311L561.1613556421,399.6329429311L560.5238556421,400.5954429311L560.3113556421,401.7829429311L560.3113556421,464.5429429311L539.6913556421,464.5429429311L539.6913556421,399.3029429311L539.8344806421,397.7341929311L540.2638556421,396.2879429311L540.9794806420999,394.9641929311L541.9813556421,393.7629429311L543.1907306420999,392.7610679311L544.5388556421001,392.0454429311L546.0257306420999,391.6160679311L547.6513556421,391.4729429311L584.9713556421,391.4729429311ZM653.213296164,391.6029429311L654.7820461639999,391.7460679311L656.2282961639999,392.1754429311L657.5520461639999,392.8910679311L658.753296164,393.8929429311L659.755171164,395.1023179311L660.4707961639999,396.4504429311L660.900171164,397.9373179311L661.043296164,399.5629429311L661.043296164,456.5829429311L660.900171164,458.2085679311L660.4707961639999,459.6954429311L659.755171164,461.04356793110003L658.753296164,462.2529429311L657.5520461639999,463.25481793110004L656.2282961639999,463.9704429311L654.7820461639999,464.3998179311L653.213296164,464.5429429311L599.463296164,464.5429429311L597.890171164,464.3998179311L596.440796164,463.9704429311L595.115171164,463.25481793110004L593.913296164,462.2529429311L592.915796164,461.04356793110003L592.203296164,459.6954429311L591.775796164,458.2085679311L591.633296164,456.5829429311L591.633296164,427.8729429311L591.775796164,426.24294293109995L592.203296164,424.7429429311L592.915796164,423.3729429311L593.913296164,422.1329429311L595.115171164,421.1091929311L596.440796164,420.3779429311L597.890171164,419.9391929311L599.463296164,419.7929429311L640.423296164,419.7929429311L640.423296164,401.6529429311L640.210796164,400.5629429311L639.573296164,399.6329429311L638.6482961639999,398.9954429311L637.553296164,398.7829429311L589.153296164,398.7829429311L589.153296164,391.4729429311ZM615.113296164,427.0929429311L614.0232961639999,427.3229429311L613.093296164,428.0129429311L612.4557961639999,428.98794293109995L612.243296164,430.0929429311L612.243296164,454.2329429311L612.4557961639999,455.42044293109996L613.093296164,456.3829429311L614.0232961639999,457.0204429311L615.113296164,457.2329429311L637.553296164,457.2329429311L638.6482961639999,457.0204429311L639.573296164,456.3829429311L640.210796164,455.42044293109996L640.423296164,454.2329429311L640.423296164,427.0929429311ZM196.8607125107,375.5129429311L196.3707125107,376.0829429311L177.1907125107,428.1429429311L216.8607125107,428.1429429311L198.7207125107,376.0829429311L198.2332125107,375.5779429311L197.5507125107,375.3629429311ZM409.454557033,310.1090465446L399.99999015000003,315.5646229533L390.2673477704,309.9501462608L398.62285435750005,231.3871976374L401.27119242000003,231.3871976374ZM431.9786722544,297.1057066578L415.61194302830006,306.5602735408L407.79934574400005,231.3739559471L410.7125176127,231.3739559471ZM384.1364451557,306.4013732571L367.7961993102,296.9732897547L389.20801254540004,231.37395594709997L392.1211844141,231.37395594709997ZM452.4106004064,285.3073605895L437.7123241596,293.7952840797L417.51874643329995,231.37395594710003L421.37207831419994,231.37395594710003ZM362.0493057147,293.6496254863L347.3642711582,285.1749436863L378.4954850827,231.3739559471L382.36205865389996,231.3739559471ZM472.7101116553,273.588464663L458.0250770988,282.0763881532L428.84039165030003,231.38719763740002L434.79915229090005,231.38719763740002ZM341.7497944658,281.9307295598L327.051518219,273.4428060696L365.028686035,231.3739559471L371.0271717465,231.3739559471ZM494.7972510963,260.8367168922L478.4437635605,270.2648003946L443.5121845165,231.3739559471L454.3571288823,231.3739559471ZM321.3046246235,270.1323834915L304.9378953974,260.6778166084L345.37801761139997,231.3739559471L356.2891704288,231.3739559471ZM510.6607960906,240.7623143786L510.66079609060006,251.6867088863L500.91491202070006,257.3011855788L465.33449015130003,231.3871976374L478.4570052509,231.3871976374L474.563948299,224.6471772684ZM321.5562167394,231.38719763739996L334.3344478908,231.38719763739996L298.7937510924,257.1290436047L289.3524258997,251.67346719599996L289.3524258997,240.43127212079997L325.6214156653,224.34261839119998ZM510.6607960906,214.7688762954L510.6607960906,233.6780100615L469.0554051291,215.0866768629L462.9774692757,204.5727747549ZM331.0902337643,214.835084747L289.33918420940006,233.36020949399997L289.33918420940006,214.4908007988L337.12844454680004,204.3873910905ZM510.6607960906,191.1589424684L510.6607960906,208.1347894489L458.6077114726,197.0117695865L455.191355372,191.09273401680002ZM344.8748333795,190.96031711369997L341.48496065949996,196.83962761239997L289.3391842094,207.8567139523L289.3391842094,190.89410866219998ZM510.6607960906,184.6837559057L451.4571987039,184.6043057638L449.20611135080003,180.6980071216L510.6607960906,167.7211506155ZM350.8600774007,180.5920735991L348.6089900476,184.485130551L289.3391842094,184.4189220994L289.3391842094,167.4430751189ZM510.6607960906,161.08706376899997L445.7897552502,174.79221324229997L444.041852129,171.77310785109998L510.6607960906,142.2176550738ZM355.9978532419,171.6804160189L354.26319181099996,174.68627971979998L289.3391842094,160.8089882724L289.3391842094,141.8998545063ZM510.6607960906,123.8911556815L510.6607960906,135.1333507567L440.7976380024,166.1453894683L439.1953934746,163.37787619300002L501.2194708978,118.4355792728ZM360.85755358660003,163.25870098020002L359.25530905880004,166.0262142555L289.3391842094,134.8023084989L289.3391842094,123.89115568150001L299.071826589,118.26343729870001ZM495.0620849026,114.9000479594L435.9511793481,157.7369161199L434.2165179172,154.731052419L478.6953556765,105.4454810763ZM365.8629125246,154.6251188965L364.1150094034,157.6442242878L305.2027292036,114.7411476756L321.5429750491,105.2998224829ZM472.9617037712,102.1218168079L430.8134035069,148.8252585397L428.5755578441,144.9322015879L458.2634275245,93.6338933177ZM371.53035597829995,144.81302637509998L369.27926862519996,148.7193250172L327.303110335,101.9893999048L341.9881448914,93.5014764146ZM452.62246745140004,90.4029208815L424.80167610510006,138.4570150251L421.41180338510003,132.5777045264L437.9506745853,81.9149973912ZM378.68086874700003,132.4188042427L375.2645126464,138.3378398123L347.5893798935,90.2705039783L362.3008978306,81.7693387978ZM432.21702268,78.59133312280001L417.0685289626,125.01669935800001L411.0435598705,114.5954890822L415.8767768345,69.1632496204ZM389.1153207132,114.3306552759L383.0373848598,124.844557384L368.0345497359,78.4589162197L384.401278962,69.0043493367ZM409.7326325296,65.6144766167L405.53501670049997,105.0614720573L399.99999015,95.4744882711L394.6371055735,104.7701548704L390.5586649572,65.4555763329L399.99999015,59.9999999242Z"></path></svg>