<svg class="svg-canvas" viewBox="244.03944748399522 31.821768772778412 311.9210853319441 311.9210853319441" width="1200" height="1200" preserveAspectRatio="none" version="1.1" xmlns="http://www.w3.org/2000/svg" xmlns:xlink="http://www.w3.org/1999/xlink" style="background:#e6eef8"><g id="shape_YgzpewmYbg" ref="shape_YgzpewmYbg" key="shape_YgzpewmYbg" mask=""><defs></defs>
                  <g transform="translate(289.3391843609,60) rotate(0,110.66081563911,127.78231151452) scale(1,1)" style="opacity: 1;mix-blend-mode: undefined;" filter="">
                    <!--普通元素-->
                    <svg version="1.0" id="圖層_1" xmlns="http://www.w3.org/2000/svg" xmlns:xlink="http://www.w3.org/1999/xlink" x="0px" y="0px" width="221.32163127822" height="255.56462302904" viewBox="13.380000114440918 2.440000057220459 167.1400146484375 193" enable-background="new 0 0 200 200" xml:space="preserve" class="style-removed" preserveAspectRatio="none" data-parent="shape_YgzpewmYbg">
<path fill-rule="evenodd" clip-rule="evenodd" fill="#0054B6" d="M75.64,94.71c0.04-0.22,0.09-0.45,0.14-0.67L75.64,94.71z
	 M72.81,16.38l12.36-7.14l3.56,34.23l-4.59,7.94L72.81,16.38L72.81,16.38z M57.37,25.3l20.9,36.3l2.58-4.47L68.48,18.88L57.37,25.3
	L57.37,25.3z M42.05,34.15l31.7,35.29l1.7-2.95L53.14,27.74L42.05,34.15L42.05,34.15z M25.36,43.78l12.34-7.13L71.17,73.9
	l-1.32,2.28L25.36,43.78L25.36,43.78z M13.38,58.93v-8.24l7.35-4.25l46.66,33.98l-1.21,2.09L13.38,58.93L13.38,58.93z M13.38,78.57
	V64.29l50.34,22.49l-1.31,2.27L13.38,78.57L13.38,78.57z M13.38,96.4l44.76,0.05l1.7-2.94l-46.46-9.93V96.4L13.38,96.4z
	 M13.38,114.1v-12.81l41.94,0.05l-2.56,4.44L13.38,114.1L13.38,114.1z M13.38,133.36l31.53-13.99l4.56-7.89l-36.09,7.63V133.36
	L13.38,133.36z M20.52,151.31l-7.13-4.12v-8.49l27.39-12.15l-3.07,5.32h9.65L20.52,151.31L20.52,151.31z M37.52,161.13l-12.36-7.14
	l30.54-22.13h8.24L37.52,161.13L37.52,161.13z M52.96,170.04l-11.1-6.41l28.68-31.77h4.53L52.96,170.04L52.96,170.04z M68.29,178.89
	l15.34-47.03h-2.92L57.2,172.49L68.29,178.89L68.29,178.89z M84.97,188.52l6.03-56.66h-2.2L72.63,181.4L84.97,188.52L84.97,188.52z
	 M104.09,191.32l-7.14,4.12l-7.35-4.24l6.31-59.33h2L104.09,191.32L104.09,191.32z M121.1,181.5l-16.06-49.64h-2.2l5.9,56.78
	L121.1,181.5L121.1,181.5z M136.53,172.59L125.43,179l-15.25-47.14h2.91L136.53,172.59L136.53,172.59z M151.86,163.74l-11.09,6.41
	l-22.04-38.28h4.5L151.86,163.74L151.86,163.74z M168.54,154.11L138,131.86h-8.19l26.38,29.37L168.54,154.11L168.54,154.11z
	 M180.52,138.95l-27.26-12.17l2.94,5.09h-9.91l26.87,19.57l7.36-4.24V138.95L180.52,138.95z M180.52,119.32l-36.01-7.7l4.59,7.94
	l31.42,14.04V119.32L180.52,119.32z M180.52,101.49v12.82l-39.31-8.4l-2.58-4.47L180.52,101.49L180.52,101.49z M180.52,83.79V96.6
	l-44.71-0.06l-1.7-2.95L180.52,83.79L180.52,83.79z M180.52,64.53l-50.31,22.32l1.32,2.28l48.99-10.35V64.53L180.52,64.53z
	 M173.39,46.57l7.13,4.12v8.49L127.76,82.6l-1.21-2.09L173.39,46.57L173.39,46.57z M156.38,36.76l12.36,7.14L124.1,76.25l-1.31-2.27
	L156.38,36.76L156.38,36.76z M140.95,27.84l11.1,6.41l-31.83,35.27l-1.69-2.94L140.95,27.84L140.95,27.84z M125.61,18.99
	l-12.49,38.26l2.56,4.44l21.01-36.29L125.61,18.99L125.61,18.99z M108.94,9.36l-3.65,34.31l4.55,7.87l11.44-35.06L108.94,9.36
	L108.94,9.36z M96.95,2.44l7.35,4.24l-3.17,29.79l-4.18-7.24l-4.05,7.02L89.82,6.56L96.95,2.44z" stroke-width="0"></path>
</svg>
                  </g>
                </g></svg>